<svg xmlns="http://www.w3.org/2000/svg" viewBox="0 0 24 24" role="img" fill="none">
  <title>OpenAI</title>
  <path d="M21.33 9.62a5.53 5.53 0 0 0-.48-4.52 5.6 5.6 0 0 0-6.03-2.68A5.6 5.6 0 0 0 5.3 4.43a5.54 5.54 0 0 0-3.7 2.68 5.6 5.6 0 0 0 .68 6.57 5.53 5.53 0 0 0 .48 4.53 5.6 5.6 0 0 0 6.03 2.68A5.55 5.55 0 0 0 12.95 23a5.61 5.61 0 0 0 5.35-3.9A5.54 5.54 0 0 0 22 16.43a5.6 5.6 0 0 0-.67-6.81ZM12.95 21.3a4.16 4.16 0 0 1-2.66-.96l.13-.08 4.43-2.56c.25-.14.4-.4.4-.69v-6.24l1.87 1.08c.02.01.04.03.04.05v5.17a4.17 4.17 0 0 1-4.21 4.23ZM4.12 17.37a4.13 4.13 0 0 1-.5-2.78l.13.08 4.43 2.56c.24.14.54.14.78 0l5.42-3.13v2.16c0 .03-.02.05-.04.06l-4.48 2.58a4.17 4.17 0 0 1-5.74-1.53ZM2.98 7.86a4.16 4.16 0 0 1 2.2-1.83v5.26c0 .28.15.54.4.68l5.39 3.11-1.87 1.08a.07.07 0 0 1-.07 0l-4.47-2.58a4.17 4.17 0 0 1-1.58-5.72Zm15.42 3.57L12.99 8.3l1.86-1.08a.07.07 0 0 1 .07 0l4.48 2.59a4.16 4.16 0 0 1-.63 7.5v-5.25a.79.79 0 0 0-.37-.63Zm1.86-2.8-.13-.08-4.42-2.57a.78.78 0 0 0-.78 0L9.52 9.1V6.94c0-.03.02-.05.04-.06L14.04 4.3a4.17 4.17 0 0 1 6.22 4.33ZM8.5 12.58l-1.87-1.07a.07.07 0 0 1-.04-.06V6.29a4.17 4.17 0 0 1 6.83-3.2l-.13.08-4.43 2.56a.79.79 0 0 0-.4.69v6.16Zm1.02-2.2L12 8.95l2.48 1.43v2.86L12 14.67l-2.48-1.43v-2.86Z" fill="#1F9CF0"/>
</svg>
