<svg width="256" height="256" viewBox="0 0 24 24" fill="none" xmlns="http://www.w3.org/2000/svg">
  <title>Gitable</title>

  <!-- Git branch mark (blue), with hollow top/bottom nodes -->
  <g
    transform="translate(11 12.5) scale(0.46) translate(-12 -12)"
    fill="none"
    stroke="#1F9CF0"
    stroke-width="2"
    stroke-linecap="round"
    stroke-linejoin="round"
  >
    <path
      d="M6 8.35V15.65M6.45 12C7.1 11.38 8.42 11 9.85 11H15C17.65 11 20.3 9.15 20.3 8"
    />
    <circle cx="6" cy="6" r="2.35"/>
    <circle cx="6" cy="18" r="2.35"/>
  </g>

  <!-- Three-leaf sprig (blue), softly angled from the branch tip -->
  <g transform="translate(14.25 11.22) rotate(23)" fill="#1F9CF0">
    <circle cx="0" cy="-0.04" r="0.48"/>
    <path transform="rotate(-18) translate(0 -0.45)" d="M0,0 C0.85,-1.05 0.85,-2.1 0,-3 C-0.85,-2.1 -0.85,-1.05 0,0 Z"/>
    <path transform="rotate(18) translate(0 -0.45)" d="M0,0 C0.85,-1.05 0.85,-2.1 0,-3 C-0.85,-2.1 -0.85,-1.05 0,0 Z"/>
    <path transform="rotate(54) translate(0 -0.45)" d="M0,0 C0.85,-1.05 0.85,-2.1 0,-3 C-0.85,-2.1 -0.85,-1.05 0,0 Z"/>
  </g>
</svg>
